<mxfile host="app.diagrams.net" modified="2023-09-12T10:21:08.564Z" agent="Mozilla/5.0 (Windows NT 10.0; Win64; x64) AppleWebKit/537.36 (KHTML, like Gecko) Chrome/116.0.0.0 Safari/537.36" etag="dB-mqDL8C4dgdN8GOGx8" version="21.7.4" type="github">
  <diagram name="第 1 页" id="4hqYP0B252HtBNRxJk2e">
    <mxGraphModel dx="2514" dy="892" grid="1" gridSize="10" guides="1" tooltips="1" connect="1" arrows="1" fold="1" page="1" pageScale="1" pageWidth="827" pageHeight="1169" math="0" shadow="0">
      <root>
        <mxCell id="0" />
        <mxCell id="1" parent="0" />
        <mxCell id="RGyL6IArfp-9qFB2Pa75-198" value="&lt;font style=&quot;font-size: 19px;&quot;&gt;ETH支付&lt;/font&gt;" style="rounded=0;whiteSpace=wrap;html=1;fillColor=#d5e8d4;strokeColor=#82b366;verticalAlign=top;align=left;" parent="1" vertex="1">
          <mxGeometry x="-520" y="1120" width="1250" height="1500" as="geometry" />
        </mxCell>
        <mxCell id="RGyL6IArfp-9qFB2Pa75-197" value="&lt;font style=&quot;font-size: 19px;&quot;&gt;BTC支付&lt;/font&gt;" style="rounded=0;whiteSpace=wrap;html=1;fillColor=#d5e8d4;strokeColor=#82b366;verticalAlign=top;align=left;" parent="1" vertex="1">
          <mxGeometry x="827" y="160" width="763" height="1190" as="geometry" />
        </mxCell>
        <mxCell id="RGyL6IArfp-9qFB2Pa75-195" value="&lt;font style=&quot;font-size: 20px;&quot;&gt;&amp;nbsp;信用卡支付&lt;/font&gt;" style="rounded=0;whiteSpace=wrap;html=1;fillColor=#d5e8d4;strokeColor=#82b366;verticalAlign=top;align=left;" parent="1" vertex="1">
          <mxGeometry x="-220" y="160" width="770" height="640" as="geometry" />
        </mxCell>
        <mxCell id="RGyL6IArfp-9qFB2Pa75-6" style="edgeStyle=orthogonalEdgeStyle;rounded=0;orthogonalLoop=1;jettySize=auto;html=1;entryX=0.5;entryY=0;entryDx=0;entryDy=0;" parent="1" source="RGyL6IArfp-9qFB2Pa75-2" target="RGyL6IArfp-9qFB2Pa75-5" edge="1">
          <mxGeometry relative="1" as="geometry" />
        </mxCell>
        <mxCell id="RGyL6IArfp-9qFB2Pa75-2" value="生产支付生产订单，锁定库存" style="rounded=0;whiteSpace=wrap;html=1;" parent="1" vertex="1">
          <mxGeometry x="60" y="320" width="120" height="60" as="geometry" />
        </mxCell>
        <mxCell id="RGyL6IArfp-9qFB2Pa75-4" style="edgeStyle=orthogonalEdgeStyle;rounded=0;orthogonalLoop=1;jettySize=auto;html=1;" parent="1" source="RGyL6IArfp-9qFB2Pa75-3" target="RGyL6IArfp-9qFB2Pa75-2" edge="1">
          <mxGeometry relative="1" as="geometry" />
        </mxCell>
        <mxCell id="RGyL6IArfp-9qFB2Pa75-3" value="选择信用卡支付" style="rounded=0;whiteSpace=wrap;html=1;" parent="1" vertex="1">
          <mxGeometry x="60" y="210" width="120" height="60" as="geometry" />
        </mxCell>
        <mxCell id="RGyL6IArfp-9qFB2Pa75-8" style="edgeStyle=orthogonalEdgeStyle;rounded=0;orthogonalLoop=1;jettySize=auto;html=1;entryX=0.5;entryY=0;entryDx=0;entryDy=0;" parent="1" source="RGyL6IArfp-9qFB2Pa75-5" target="RGyL6IArfp-9qFB2Pa75-7" edge="1">
          <mxGeometry relative="1" as="geometry" />
        </mxCell>
        <mxCell id="RGyL6IArfp-9qFB2Pa75-5" value="锁定库存，跳转支付页面" style="rounded=0;whiteSpace=wrap;html=1;" parent="1" vertex="1">
          <mxGeometry x="60" y="430" width="120" height="60" as="geometry" />
        </mxCell>
        <mxCell id="RGyL6IArfp-9qFB2Pa75-10" value="" style="edgeStyle=orthogonalEdgeStyle;rounded=0;orthogonalLoop=1;jettySize=auto;html=1;" parent="1" source="RGyL6IArfp-9qFB2Pa75-7" target="RGyL6IArfp-9qFB2Pa75-9" edge="1">
          <mxGeometry relative="1" as="geometry" />
        </mxCell>
        <mxCell id="RGyL6IArfp-9qFB2Pa75-12" value="" style="edgeStyle=orthogonalEdgeStyle;rounded=0;orthogonalLoop=1;jettySize=auto;html=1;" parent="1" source="RGyL6IArfp-9qFB2Pa75-7" target="RGyL6IArfp-9qFB2Pa75-11" edge="1">
          <mxGeometry relative="1" as="geometry" />
        </mxCell>
        <mxCell id="RGyL6IArfp-9qFB2Pa75-14" value="" style="edgeStyle=orthogonalEdgeStyle;rounded=0;orthogonalLoop=1;jettySize=auto;html=1;" parent="1" source="RGyL6IArfp-9qFB2Pa75-7" target="RGyL6IArfp-9qFB2Pa75-13" edge="1">
          <mxGeometry relative="1" as="geometry" />
        </mxCell>
        <mxCell id="RGyL6IArfp-9qFB2Pa75-16" value="" style="edgeStyle=orthogonalEdgeStyle;rounded=0;orthogonalLoop=1;jettySize=auto;html=1;fillColor=#d5e8d4;strokeColor=#82b366;" parent="1" source="RGyL6IArfp-9qFB2Pa75-7" target="RGyL6IArfp-9qFB2Pa75-15" edge="1">
          <mxGeometry relative="1" as="geometry" />
        </mxCell>
        <mxCell id="RGyL6IArfp-9qFB2Pa75-7" value="stripe 页面操作" style="rhombus;whiteSpace=wrap;html=1;" parent="1" vertex="1">
          <mxGeometry x="80" y="530" width="80" height="80" as="geometry" />
        </mxCell>
        <mxCell id="RGyL6IArfp-9qFB2Pa75-9" value="30分钟内支付，订单支付成功，流程继续" style="whiteSpace=wrap;html=1;" parent="1" vertex="1">
          <mxGeometry x="-150" y="700" width="120" height="60" as="geometry" />
        </mxCell>
        <mxCell id="RGyL6IArfp-9qFB2Pa75-11" value="页面按返回，直接取消订单，释放库存，流程结束" style="whiteSpace=wrap;html=1;" parent="1" vertex="1">
          <mxGeometry x="60" y="700" width="120" height="60" as="geometry" />
        </mxCell>
        <mxCell id="RGyL6IArfp-9qFB2Pa75-13" value="支付时间超过30分钟，支付不了，跳回portal端，订单取消，释放库存,流程结束" style="whiteSpace=wrap;html=1;" parent="1" vertex="1">
          <mxGeometry x="230" y="700" width="120" height="60" as="geometry" />
        </mxCell>
        <mxCell id="RGyL6IArfp-9qFB2Pa75-15" value="直接关闭支付页面。35分支后，自动取消订单，释放库存，,流程结束" style="whiteSpace=wrap;html=1;" parent="1" vertex="1">
          <mxGeometry x="410" y="700" width="120" height="60" as="geometry" />
        </mxCell>
        <mxCell id="RGyL6IArfp-9qFB2Pa75-29" style="edgeStyle=orthogonalEdgeStyle;rounded=0;orthogonalLoop=1;jettySize=auto;html=1;entryX=0.5;entryY=0;entryDx=0;entryDy=0;" parent="1" source="RGyL6IArfp-9qFB2Pa75-30" target="RGyL6IArfp-9qFB2Pa75-34" edge="1">
          <mxGeometry relative="1" as="geometry" />
        </mxCell>
        <mxCell id="RGyL6IArfp-9qFB2Pa75-30" value="生产支付生产订单，锁定库存" style="rounded=0;whiteSpace=wrap;html=1;" parent="1" vertex="1">
          <mxGeometry x="40" y="1270" width="120" height="60" as="geometry" />
        </mxCell>
        <mxCell id="RGyL6IArfp-9qFB2Pa75-31" style="edgeStyle=orthogonalEdgeStyle;rounded=0;orthogonalLoop=1;jettySize=auto;html=1;" parent="1" source="RGyL6IArfp-9qFB2Pa75-32" target="RGyL6IArfp-9qFB2Pa75-30" edge="1">
          <mxGeometry relative="1" as="geometry" />
        </mxCell>
        <mxCell id="RGyL6IArfp-9qFB2Pa75-32" value="选择ETH 支付" style="rounded=0;whiteSpace=wrap;html=1;" parent="1" vertex="1">
          <mxGeometry x="40" y="1160" width="120" height="60" as="geometry" />
        </mxCell>
        <mxCell id="RGyL6IArfp-9qFB2Pa75-33" style="edgeStyle=orthogonalEdgeStyle;rounded=0;orthogonalLoop=1;jettySize=auto;html=1;entryX=0.5;entryY=0;entryDx=0;entryDy=0;" parent="1" source="RGyL6IArfp-9qFB2Pa75-34" target="RGyL6IArfp-9qFB2Pa75-39" edge="1">
          <mxGeometry relative="1" as="geometry" />
        </mxCell>
        <mxCell id="RGyL6IArfp-9qFB2Pa75-34" value="锁定库存，拉起支付插件" style="rounded=0;whiteSpace=wrap;html=1;" parent="1" vertex="1">
          <mxGeometry x="40" y="1380" width="120" height="60" as="geometry" />
        </mxCell>
        <mxCell id="RGyL6IArfp-9qFB2Pa75-35" value="" style="edgeStyle=orthogonalEdgeStyle;rounded=0;orthogonalLoop=1;jettySize=auto;html=1;" parent="1" source="RGyL6IArfp-9qFB2Pa75-39" target="RGyL6IArfp-9qFB2Pa75-40" edge="1">
          <mxGeometry relative="1" as="geometry" />
        </mxCell>
        <mxCell id="RGyL6IArfp-9qFB2Pa75-36" value="" style="edgeStyle=orthogonalEdgeStyle;rounded=0;orthogonalLoop=1;jettySize=auto;html=1;" parent="1" source="RGyL6IArfp-9qFB2Pa75-39" target="RGyL6IArfp-9qFB2Pa75-41" edge="1">
          <mxGeometry relative="1" as="geometry" />
        </mxCell>
        <mxCell id="RGyL6IArfp-9qFB2Pa75-37" value="" style="edgeStyle=orthogonalEdgeStyle;rounded=0;orthogonalLoop=1;jettySize=auto;html=1;" parent="1" source="RGyL6IArfp-9qFB2Pa75-39" target="RGyL6IArfp-9qFB2Pa75-42" edge="1">
          <mxGeometry relative="1" as="geometry" />
        </mxCell>
        <mxCell id="RGyL6IArfp-9qFB2Pa75-38" value="" style="edgeStyle=orthogonalEdgeStyle;rounded=0;orthogonalLoop=1;jettySize=auto;html=1;" parent="1" source="RGyL6IArfp-9qFB2Pa75-39" target="RGyL6IArfp-9qFB2Pa75-43" edge="1">
          <mxGeometry relative="1" as="geometry" />
        </mxCell>
        <mxCell id="RGyL6IArfp-9qFB2Pa75-39" value="小狐狸页面操作" style="rhombus;whiteSpace=wrap;html=1;" parent="1" vertex="1">
          <mxGeometry x="60" y="1480" width="80" height="80" as="geometry" />
        </mxCell>
        <mxCell id="RGyL6IArfp-9qFB2Pa75-201" style="edgeStyle=orthogonalEdgeStyle;rounded=0;orthogonalLoop=1;jettySize=auto;html=1;" parent="1" source="RGyL6IArfp-9qFB2Pa75-40" target="RGyL6IArfp-9qFB2Pa75-200" edge="1">
          <mxGeometry relative="1" as="geometry" />
        </mxCell>
        <mxCell id="RGyL6IArfp-9qFB2Pa75-40" value="没有关闭页面,10分钟内支付，支付成功，拿到交易Id" style="whiteSpace=wrap;html=1;" parent="1" vertex="1">
          <mxGeometry x="-220" y="1650" width="120" height="60" as="geometry" />
        </mxCell>
        <mxCell id="RGyL6IArfp-9qFB2Pa75-100" value="" style="edgeStyle=orthogonalEdgeStyle;rounded=0;orthogonalLoop=1;jettySize=auto;html=1;" parent="1" source="RGyL6IArfp-9qFB2Pa75-41" edge="1">
          <mxGeometry relative="1" as="geometry">
            <mxPoint x="180" y="1840" as="targetPoint" />
          </mxGeometry>
        </mxCell>
        <mxCell id="RGyL6IArfp-9qFB2Pa75-41" value="超过10分钟后继续支付页面，这个时候checkout页面关闭" style="whiteSpace=wrap;html=1;" parent="1" vertex="1">
          <mxGeometry x="40" y="1650" width="120" height="60" as="geometry" />
        </mxCell>
        <mxCell id="RGyL6IArfp-9qFB2Pa75-102" style="edgeStyle=orthogonalEdgeStyle;rounded=0;orthogonalLoop=1;jettySize=auto;html=1;" parent="1" source="RGyL6IArfp-9qFB2Pa75-42" edge="1">
          <mxGeometry relative="1" as="geometry">
            <mxPoint x="180" y="1840" as="targetPoint" />
          </mxGeometry>
        </mxCell>
        <mxCell id="RGyL6IArfp-9qFB2Pa75-42" value="关闭页面，然后继续支付" style="whiteSpace=wrap;html=1;" parent="1" vertex="1">
          <mxGeometry x="210" y="1650" width="120" height="60" as="geometry" />
        </mxCell>
        <mxCell id="RGyL6IArfp-9qFB2Pa75-43" value="取消支付，直接取消订单，释放库存，流程结束" style="whiteSpace=wrap;html=1;" parent="1" vertex="1">
          <mxGeometry x="390" y="1650" width="120" height="60" as="geometry" />
        </mxCell>
        <mxCell id="RGyL6IArfp-9qFB2Pa75-112" value="" style="edgeStyle=orthogonalEdgeStyle;rounded=0;orthogonalLoop=1;jettySize=auto;html=1;" parent="1" source="RGyL6IArfp-9qFB2Pa75-44" target="RGyL6IArfp-9qFB2Pa75-111" edge="1">
          <mxGeometry relative="1" as="geometry" />
        </mxCell>
        <mxCell id="RGyL6IArfp-9qFB2Pa75-44" value="收到BC回调确认" style="whiteSpace=wrap;html=1;" parent="1" vertex="1">
          <mxGeometry x="-430" y="1890" width="120" height="60" as="geometry" />
        </mxCell>
        <mxCell id="RGyL6IArfp-9qFB2Pa75-60" style="edgeStyle=orthogonalEdgeStyle;rounded=0;orthogonalLoop=1;jettySize=auto;html=1;entryX=0.5;entryY=0;entryDx=0;entryDy=0;" parent="1" source="RGyL6IArfp-9qFB2Pa75-61" target="RGyL6IArfp-9qFB2Pa75-65" edge="1">
          <mxGeometry relative="1" as="geometry" />
        </mxCell>
        <mxCell id="RGyL6IArfp-9qFB2Pa75-61" value="生产支付生产订单，锁定库存" style="rounded=0;whiteSpace=wrap;html=1;" parent="1" vertex="1">
          <mxGeometry x="1090" y="330" width="120" height="60" as="geometry" />
        </mxCell>
        <mxCell id="RGyL6IArfp-9qFB2Pa75-62" style="edgeStyle=orthogonalEdgeStyle;rounded=0;orthogonalLoop=1;jettySize=auto;html=1;" parent="1" source="RGyL6IArfp-9qFB2Pa75-63" target="RGyL6IArfp-9qFB2Pa75-61" edge="1">
          <mxGeometry relative="1" as="geometry" />
        </mxCell>
        <mxCell id="RGyL6IArfp-9qFB2Pa75-63" value="选择BTC" style="rounded=0;whiteSpace=wrap;html=1;" parent="1" vertex="1">
          <mxGeometry x="1090" y="220" width="120" height="60" as="geometry" />
        </mxCell>
        <mxCell id="RGyL6IArfp-9qFB2Pa75-64" style="edgeStyle=orthogonalEdgeStyle;rounded=0;orthogonalLoop=1;jettySize=auto;html=1;entryX=0.5;entryY=0;entryDx=0;entryDy=0;" parent="1" source="RGyL6IArfp-9qFB2Pa75-65" target="RGyL6IArfp-9qFB2Pa75-70" edge="1">
          <mxGeometry relative="1" as="geometry" />
        </mxCell>
        <mxCell id="RGyL6IArfp-9qFB2Pa75-65" value="锁定库存，显示支付二维码" style="rounded=0;whiteSpace=wrap;html=1;" parent="1" vertex="1">
          <mxGeometry x="1090" y="440" width="120" height="60" as="geometry" />
        </mxCell>
        <mxCell id="RGyL6IArfp-9qFB2Pa75-80" value="" style="edgeStyle=orthogonalEdgeStyle;rounded=0;orthogonalLoop=1;jettySize=auto;html=1;" parent="1" source="RGyL6IArfp-9qFB2Pa75-70" target="RGyL6IArfp-9qFB2Pa75-79" edge="1">
          <mxGeometry relative="1" as="geometry" />
        </mxCell>
        <mxCell id="RGyL6IArfp-9qFB2Pa75-82" value="" style="edgeStyle=orthogonalEdgeStyle;rounded=0;orthogonalLoop=1;jettySize=auto;html=1;" parent="1" source="RGyL6IArfp-9qFB2Pa75-70" target="RGyL6IArfp-9qFB2Pa75-81" edge="1">
          <mxGeometry relative="1" as="geometry" />
        </mxCell>
        <mxCell id="RGyL6IArfp-9qFB2Pa75-70" value="使用BTC钱包支付，等待BC回调" style="rhombus;whiteSpace=wrap;html=1;" parent="1" vertex="1">
          <mxGeometry x="1110" y="540" width="80" height="80" as="geometry" />
        </mxCell>
        <mxCell id="RGyL6IArfp-9qFB2Pa75-79" value="10分钟内接收到BC支付成功通知，支付成功，流程继续" style="whiteSpace=wrap;html=1;" parent="1" vertex="1">
          <mxGeometry x="910" y="700" width="120" height="60" as="geometry" />
        </mxCell>
        <mxCell id="RGyL6IArfp-9qFB2Pa75-84" value="" style="edgeStyle=orthogonalEdgeStyle;rounded=0;orthogonalLoop=1;jettySize=auto;html=1;" parent="1" source="RGyL6IArfp-9qFB2Pa75-81" target="RGyL6IArfp-9qFB2Pa75-83" edge="1">
          <mxGeometry relative="1" as="geometry" />
        </mxCell>
        <mxCell id="RGyL6IArfp-9qFB2Pa75-81" value="10分钟内没收到支付通知" style="whiteSpace=wrap;html=1;" parent="1" vertex="1">
          <mxGeometry x="1260" y="700" width="120" height="60" as="geometry" />
        </mxCell>
        <mxCell id="RGyL6IArfp-9qFB2Pa75-86" value="" style="edgeStyle=orthogonalEdgeStyle;rounded=0;orthogonalLoop=1;jettySize=auto;html=1;" parent="1" source="RGyL6IArfp-9qFB2Pa75-83" target="RGyL6IArfp-9qFB2Pa75-85" edge="1">
          <mxGeometry relative="1" as="geometry" />
        </mxCell>
        <mxCell id="RGyL6IArfp-9qFB2Pa75-88" value="" style="edgeStyle=orthogonalEdgeStyle;rounded=0;orthogonalLoop=1;jettySize=auto;html=1;" parent="1" source="RGyL6IArfp-9qFB2Pa75-83" target="RGyL6IArfp-9qFB2Pa75-87" edge="1">
          <mxGeometry relative="1" as="geometry" />
        </mxCell>
        <mxCell id="RGyL6IArfp-9qFB2Pa75-83" value="释放库存,不取消订单" style="whiteSpace=wrap;html=1;" parent="1" vertex="1">
          <mxGeometry x="1260" y="820" width="120" height="60" as="geometry" />
        </mxCell>
        <mxCell id="RGyL6IArfp-9qFB2Pa75-92" value="" style="edgeStyle=orthogonalEdgeStyle;rounded=0;orthogonalLoop=1;jettySize=auto;html=1;" parent="1" source="RGyL6IArfp-9qFB2Pa75-85" target="RGyL6IArfp-9qFB2Pa75-91" edge="1">
          <mxGeometry relative="1" as="geometry" />
        </mxCell>
        <mxCell id="RGyL6IArfp-9qFB2Pa75-85" value="10分钟后， 12小时内收到支付成功通知" style="whiteSpace=wrap;html=1;" parent="1" vertex="1">
          <mxGeometry x="1100" y="900" width="120" height="60" as="geometry" />
        </mxCell>
        <mxCell id="RGyL6IArfp-9qFB2Pa75-87" value="12小时后收到支付通知，订单支付成功，订单取消" style="whiteSpace=wrap;html=1;" parent="1" vertex="1">
          <mxGeometry x="1420" y="910" width="120" height="60" as="geometry" />
        </mxCell>
        <mxCell id="RGyL6IArfp-9qFB2Pa75-94" value="" style="edgeStyle=orthogonalEdgeStyle;rounded=0;orthogonalLoop=1;jettySize=auto;html=1;" parent="1" source="RGyL6IArfp-9qFB2Pa75-91" target="RGyL6IArfp-9qFB2Pa75-93" edge="1">
          <mxGeometry relative="1" as="geometry" />
        </mxCell>
        <mxCell id="RGyL6IArfp-9qFB2Pa75-98" value="" style="edgeStyle=orthogonalEdgeStyle;rounded=0;orthogonalLoop=1;jettySize=auto;html=1;" parent="1" source="RGyL6IArfp-9qFB2Pa75-91" target="RGyL6IArfp-9qFB2Pa75-97" edge="1">
          <mxGeometry relative="1" as="geometry" />
        </mxCell>
        <mxCell id="RGyL6IArfp-9qFB2Pa75-91" value="重新获取库存" style="rhombus;whiteSpace=wrap;html=1;" parent="1" vertex="1">
          <mxGeometry x="1120" y="1100" width="80" height="80" as="geometry" />
        </mxCell>
        <mxCell id="RGyL6IArfp-9qFB2Pa75-93" value="获取成功，订单支付支付成功，流程继续" style="whiteSpace=wrap;html=1;" parent="1" vertex="1">
          <mxGeometry x="1210" y="1230" width="120" height="60" as="geometry" />
        </mxCell>
        <mxCell id="RGyL6IArfp-9qFB2Pa75-97" value="获取失败，支付成功，流程结束" style="whiteSpace=wrap;html=1;" parent="1" vertex="1">
          <mxGeometry x="970" y="1230" width="120" height="60" as="geometry" />
        </mxCell>
        <mxCell id="RGyL6IArfp-9qFB2Pa75-111" value="支付成功流程继续" style="whiteSpace=wrap;html=1;" parent="1" vertex="1">
          <mxGeometry x="-430" y="2020" width="120" height="60" as="geometry" />
        </mxCell>
        <mxCell id="RGyL6IArfp-9qFB2Pa75-173" value="" style="edgeStyle=orthogonalEdgeStyle;rounded=0;orthogonalLoop=1;jettySize=auto;html=1;" parent="1" source="RGyL6IArfp-9qFB2Pa75-175" target="RGyL6IArfp-9qFB2Pa75-176" edge="1">
          <mxGeometry relative="1" as="geometry" />
        </mxCell>
        <mxCell id="RGyL6IArfp-9qFB2Pa75-174" value="" style="edgeStyle=orthogonalEdgeStyle;rounded=0;orthogonalLoop=1;jettySize=auto;html=1;" parent="1" source="RGyL6IArfp-9qFB2Pa75-175" target="RGyL6IArfp-9qFB2Pa75-178" edge="1">
          <mxGeometry relative="1" as="geometry" />
        </mxCell>
        <mxCell id="RGyL6IArfp-9qFB2Pa75-175" value="等待BC回调确认" style="rhombus;whiteSpace=wrap;html=1;" parent="1" vertex="1">
          <mxGeometry x="140" y="1840" width="80" height="80" as="geometry" />
        </mxCell>
        <mxCell id="RGyL6IArfp-9qFB2Pa75-176" value="10分钟内接收到BC支付成功通知，支付成功，流程继续" style="whiteSpace=wrap;html=1;" parent="1" vertex="1">
          <mxGeometry x="-60" y="2000" width="120" height="60" as="geometry" />
        </mxCell>
        <mxCell id="RGyL6IArfp-9qFB2Pa75-177" value="" style="edgeStyle=orthogonalEdgeStyle;rounded=0;orthogonalLoop=1;jettySize=auto;html=1;" parent="1" source="RGyL6IArfp-9qFB2Pa75-178" target="RGyL6IArfp-9qFB2Pa75-181" edge="1">
          <mxGeometry relative="1" as="geometry" />
        </mxCell>
        <mxCell id="RGyL6IArfp-9qFB2Pa75-178" value="10分钟内没收到支付通知" style="whiteSpace=wrap;html=1;" parent="1" vertex="1">
          <mxGeometry x="290" y="2000" width="120" height="60" as="geometry" />
        </mxCell>
        <mxCell id="RGyL6IArfp-9qFB2Pa75-179" value="" style="edgeStyle=orthogonalEdgeStyle;rounded=0;orthogonalLoop=1;jettySize=auto;html=1;" parent="1" source="RGyL6IArfp-9qFB2Pa75-181" target="RGyL6IArfp-9qFB2Pa75-183" edge="1">
          <mxGeometry relative="1" as="geometry" />
        </mxCell>
        <mxCell id="RGyL6IArfp-9qFB2Pa75-180" value="" style="edgeStyle=orthogonalEdgeStyle;rounded=0;orthogonalLoop=1;jettySize=auto;html=1;" parent="1" source="RGyL6IArfp-9qFB2Pa75-181" target="RGyL6IArfp-9qFB2Pa75-184" edge="1">
          <mxGeometry relative="1" as="geometry" />
        </mxCell>
        <mxCell id="RGyL6IArfp-9qFB2Pa75-194" value="" style="edgeStyle=orthogonalEdgeStyle;rounded=0;orthogonalLoop=1;jettySize=auto;html=1;" parent="1" source="RGyL6IArfp-9qFB2Pa75-181" target="RGyL6IArfp-9qFB2Pa75-193" edge="1">
          <mxGeometry relative="1" as="geometry" />
        </mxCell>
        <mxCell id="RGyL6IArfp-9qFB2Pa75-181" value="释放库存,不取消订单" style="whiteSpace=wrap;html=1;" parent="1" vertex="1">
          <mxGeometry x="290" y="2150" width="120" height="60" as="geometry" />
        </mxCell>
        <mxCell id="RGyL6IArfp-9qFB2Pa75-182" value="" style="edgeStyle=orthogonalEdgeStyle;rounded=0;orthogonalLoop=1;jettySize=auto;html=1;" parent="1" source="RGyL6IArfp-9qFB2Pa75-183" target="RGyL6IArfp-9qFB2Pa75-187" edge="1">
          <mxGeometry relative="1" as="geometry" />
        </mxCell>
        <mxCell id="RGyL6IArfp-9qFB2Pa75-183" value="10分钟后， 12小时内收到支付成功通知" style="whiteSpace=wrap;html=1;" parent="1" vertex="1">
          <mxGeometry x="130" y="2270" width="120" height="60" as="geometry" />
        </mxCell>
        <mxCell id="RGyL6IArfp-9qFB2Pa75-184" value="12小时后收到支付通知，订单支付成功，订单取消,流程结束" style="whiteSpace=wrap;html=1;" parent="1" vertex="1">
          <mxGeometry x="350" y="2270" width="120" height="60" as="geometry" />
        </mxCell>
        <mxCell id="RGyL6IArfp-9qFB2Pa75-185" value="" style="edgeStyle=orthogonalEdgeStyle;rounded=0;orthogonalLoop=1;jettySize=auto;html=1;" parent="1" source="RGyL6IArfp-9qFB2Pa75-187" target="RGyL6IArfp-9qFB2Pa75-188" edge="1">
          <mxGeometry relative="1" as="geometry" />
        </mxCell>
        <mxCell id="RGyL6IArfp-9qFB2Pa75-186" value="" style="edgeStyle=orthogonalEdgeStyle;rounded=0;orthogonalLoop=1;jettySize=auto;html=1;" parent="1" source="RGyL6IArfp-9qFB2Pa75-187" target="RGyL6IArfp-9qFB2Pa75-189" edge="1">
          <mxGeometry relative="1" as="geometry" />
        </mxCell>
        <mxCell id="RGyL6IArfp-9qFB2Pa75-187" value="重新获取库存" style="rhombus;whiteSpace=wrap;html=1;" parent="1" vertex="1">
          <mxGeometry x="150" y="2400" width="80" height="80" as="geometry" />
        </mxCell>
        <mxCell id="RGyL6IArfp-9qFB2Pa75-188" value="获取成功，订单支付支付成功，流程继续" style="whiteSpace=wrap;html=1;" parent="1" vertex="1">
          <mxGeometry x="240" y="2530" width="120" height="60" as="geometry" />
        </mxCell>
        <mxCell id="RGyL6IArfp-9qFB2Pa75-189" value="获取失败，支付成功，流程结束" style="whiteSpace=wrap;html=1;" parent="1" vertex="1">
          <mxGeometry y="2530" width="120" height="60" as="geometry" />
        </mxCell>
        <mxCell id="RGyL6IArfp-9qFB2Pa75-193" value="12小时后还没收到通知，支付失败，订单取消,流程结束" style="whiteSpace=wrap;html=1;" parent="1" vertex="1">
          <mxGeometry x="530" y="2270" width="120" height="60" as="geometry" />
        </mxCell>
        <mxCell id="RGyL6IArfp-9qFB2Pa75-203" style="edgeStyle=orthogonalEdgeStyle;rounded=0;orthogonalLoop=1;jettySize=auto;html=1;entryX=0.5;entryY=0;entryDx=0;entryDy=0;" parent="1" source="RGyL6IArfp-9qFB2Pa75-200" target="RGyL6IArfp-9qFB2Pa75-44" edge="1">
          <mxGeometry relative="1" as="geometry" />
        </mxCell>
        <mxCell id="RGyL6IArfp-9qFB2Pa75-205" value="" style="edgeStyle=orthogonalEdgeStyle;rounded=0;orthogonalLoop=1;jettySize=auto;html=1;" parent="1" source="RGyL6IArfp-9qFB2Pa75-200" target="RGyL6IArfp-9qFB2Pa75-204" edge="1">
          <mxGeometry relative="1" as="geometry" />
        </mxCell>
        <mxCell id="RGyL6IArfp-9qFB2Pa75-200" value="等待BC回调确认" style="rhombus;whiteSpace=wrap;html=1;" parent="1" vertex="1">
          <mxGeometry x="-200" y="1780" width="80" height="80" as="geometry" />
        </mxCell>
        <mxCell id="RGyL6IArfp-9qFB2Pa75-204" value="收不到BC回调确认。人工处理" style="whiteSpace=wrap;html=1;" parent="1" vertex="1">
          <mxGeometry x="-220" y="2000" width="120" height="60" as="geometry" />
        </mxCell>
        <mxCell id="Hoz9Jt24U8FRxCGWqwZo-1" value="&lt;font style=&quot;font-size: 20px;&quot;&gt;银行转账支付&lt;/font&gt;" style="rounded=0;whiteSpace=wrap;html=1;fillColor=#d5e8d4;strokeColor=#82b366;verticalAlign=top;align=left;" vertex="1" parent="1">
          <mxGeometry x="-200" y="2970" width="790" height="1240" as="geometry" />
        </mxCell>
        <mxCell id="Hoz9Jt24U8FRxCGWqwZo-2" style="edgeStyle=orthogonalEdgeStyle;rounded=0;orthogonalLoop=1;jettySize=auto;html=1;entryX=0.5;entryY=0;entryDx=0;entryDy=0;" edge="1" parent="1" source="Hoz9Jt24U8FRxCGWqwZo-3" target="Hoz9Jt24U8FRxCGWqwZo-7">
          <mxGeometry relative="1" as="geometry" />
        </mxCell>
        <mxCell id="Hoz9Jt24U8FRxCGWqwZo-3" value="生产支付生产订单，锁定库存" style="rounded=0;whiteSpace=wrap;html=1;" vertex="1" parent="1">
          <mxGeometry x="70" y="3130" width="120" height="60" as="geometry" />
        </mxCell>
        <mxCell id="Hoz9Jt24U8FRxCGWqwZo-4" style="edgeStyle=orthogonalEdgeStyle;rounded=0;orthogonalLoop=1;jettySize=auto;html=1;" edge="1" parent="1" source="Hoz9Jt24U8FRxCGWqwZo-5" target="Hoz9Jt24U8FRxCGWqwZo-3">
          <mxGeometry relative="1" as="geometry" />
        </mxCell>
        <mxCell id="Hoz9Jt24U8FRxCGWqwZo-5" value="选择银行转账" style="rounded=0;whiteSpace=wrap;html=1;" vertex="1" parent="1">
          <mxGeometry x="70" y="3020" width="120" height="60" as="geometry" />
        </mxCell>
        <mxCell id="Hoz9Jt24U8FRxCGWqwZo-6" style="edgeStyle=orthogonalEdgeStyle;rounded=0;orthogonalLoop=1;jettySize=auto;html=1;entryX=0.5;entryY=0;entryDx=0;entryDy=0;" edge="1" parent="1" source="Hoz9Jt24U8FRxCGWqwZo-7" target="Hoz9Jt24U8FRxCGWqwZo-12">
          <mxGeometry relative="1" as="geometry" />
        </mxCell>
        <mxCell id="Hoz9Jt24U8FRxCGWqwZo-7" value="锁定库存，跳转支付页面" style="rounded=0;whiteSpace=wrap;html=1;" vertex="1" parent="1">
          <mxGeometry x="70" y="3240" width="120" height="60" as="geometry" />
        </mxCell>
        <mxCell id="Hoz9Jt24U8FRxCGWqwZo-8" value="" style="edgeStyle=orthogonalEdgeStyle;rounded=0;orthogonalLoop=1;jettySize=auto;html=1;" edge="1" parent="1" source="Hoz9Jt24U8FRxCGWqwZo-12" target="Hoz9Jt24U8FRxCGWqwZo-13">
          <mxGeometry relative="1" as="geometry" />
        </mxCell>
        <mxCell id="Hoz9Jt24U8FRxCGWqwZo-9" value="" style="edgeStyle=orthogonalEdgeStyle;rounded=0;orthogonalLoop=1;jettySize=auto;html=1;" edge="1" parent="1" source="Hoz9Jt24U8FRxCGWqwZo-12" target="Hoz9Jt24U8FRxCGWqwZo-14">
          <mxGeometry relative="1" as="geometry" />
        </mxCell>
        <mxCell id="Hoz9Jt24U8FRxCGWqwZo-10" value="" style="edgeStyle=orthogonalEdgeStyle;rounded=0;orthogonalLoop=1;jettySize=auto;html=1;" edge="1" parent="1" source="Hoz9Jt24U8FRxCGWqwZo-12" target="Hoz9Jt24U8FRxCGWqwZo-15">
          <mxGeometry relative="1" as="geometry" />
        </mxCell>
        <mxCell id="Hoz9Jt24U8FRxCGWqwZo-11" value="" style="edgeStyle=orthogonalEdgeStyle;rounded=0;orthogonalLoop=1;jettySize=auto;html=1;fillColor=#d5e8d4;strokeColor=#82b366;" edge="1" parent="1" source="Hoz9Jt24U8FRxCGWqwZo-12" target="Hoz9Jt24U8FRxCGWqwZo-16">
          <mxGeometry relative="1" as="geometry" />
        </mxCell>
        <mxCell id="Hoz9Jt24U8FRxCGWqwZo-12" value="stripe 页面操作" style="rhombus;whiteSpace=wrap;html=1;" vertex="1" parent="1">
          <mxGeometry x="90" y="3340" width="80" height="80" as="geometry" />
        </mxCell>
        <mxCell id="Hoz9Jt24U8FRxCGWqwZo-18" value="" style="edgeStyle=orthogonalEdgeStyle;rounded=0;orthogonalLoop=1;jettySize=auto;html=1;" edge="1" parent="1" source="Hoz9Jt24U8FRxCGWqwZo-13" target="Hoz9Jt24U8FRxCGWqwZo-17">
          <mxGeometry relative="1" as="geometry" />
        </mxCell>
        <mxCell id="Hoz9Jt24U8FRxCGWqwZo-13" value="30分钟内支付，订单首付款&lt;br&gt;支付成功，流程继续" style="whiteSpace=wrap;html=1;" vertex="1" parent="1">
          <mxGeometry x="-140" y="3510" width="120" height="60" as="geometry" />
        </mxCell>
        <mxCell id="Hoz9Jt24U8FRxCGWqwZo-14" value="页面按返回，直接取消订单，释放库存，流程结束" style="whiteSpace=wrap;html=1;" vertex="1" parent="1">
          <mxGeometry x="70" y="3510" width="120" height="60" as="geometry" />
        </mxCell>
        <mxCell id="Hoz9Jt24U8FRxCGWqwZo-15" value="支付时间超过30分钟，支付不了，跳回portal端，订单取消，释放库存,流程结束" style="whiteSpace=wrap;html=1;" vertex="1" parent="1">
          <mxGeometry x="240" y="3510" width="120" height="60" as="geometry" />
        </mxCell>
        <mxCell id="Hoz9Jt24U8FRxCGWqwZo-16" value="直接关闭支付页面。35分支后，自动取消订单，释放库存，,流程结束" style="whiteSpace=wrap;html=1;" vertex="1" parent="1">
          <mxGeometry x="420" y="3510" width="120" height="60" as="geometry" />
        </mxCell>
        <mxCell id="Hoz9Jt24U8FRxCGWqwZo-20" value="" style="edgeStyle=orthogonalEdgeStyle;rounded=0;orthogonalLoop=1;jettySize=auto;html=1;" edge="1" parent="1" source="Hoz9Jt24U8FRxCGWqwZo-17" target="Hoz9Jt24U8FRxCGWqwZo-19">
          <mxGeometry relative="1" as="geometry" />
        </mxCell>
        <mxCell id="Hoz9Jt24U8FRxCGWqwZo-17" value="首付款支付完成" style="whiteSpace=wrap;html=1;" vertex="1" parent="1">
          <mxGeometry x="-140" y="3650" width="120" height="60" as="geometry" />
        </mxCell>
        <mxCell id="Hoz9Jt24U8FRxCGWqwZo-28" value="" style="edgeStyle=orthogonalEdgeStyle;rounded=0;orthogonalLoop=1;jettySize=auto;html=1;" edge="1" parent="1" source="Hoz9Jt24U8FRxCGWqwZo-19" target="Hoz9Jt24U8FRxCGWqwZo-27">
          <mxGeometry relative="1" as="geometry" />
        </mxCell>
        <mxCell id="Hoz9Jt24U8FRxCGWqwZo-19" value="发送email，通过email或者在invoce确认支付尾款" style="whiteSpace=wrap;html=1;" vertex="1" parent="1">
          <mxGeometry x="-145" y="3780" width="130" height="100" as="geometry" />
        </mxCell>
        <mxCell id="Hoz9Jt24U8FRxCGWqwZo-30" value="" style="edgeStyle=orthogonalEdgeStyle;rounded=0;orthogonalLoop=1;jettySize=auto;html=1;" edge="1" parent="1" source="Hoz9Jt24U8FRxCGWqwZo-27" target="Hoz9Jt24U8FRxCGWqwZo-29">
          <mxGeometry relative="1" as="geometry" />
        </mxCell>
        <mxCell id="Hoz9Jt24U8FRxCGWqwZo-32" value="" style="edgeStyle=orthogonalEdgeStyle;rounded=0;orthogonalLoop=1;jettySize=auto;html=1;" edge="1" parent="1" source="Hoz9Jt24U8FRxCGWqwZo-27" target="Hoz9Jt24U8FRxCGWqwZo-31">
          <mxGeometry relative="1" as="geometry" />
        </mxCell>
        <mxCell id="Hoz9Jt24U8FRxCGWqwZo-27" value="admin 线下确认是否支付，收到出发订单确认或者取消" style="rhombus;whiteSpace=wrap;html=1;" vertex="1" parent="1">
          <mxGeometry x="-185" y="3980" width="210" height="110" as="geometry" />
        </mxCell>
        <mxCell id="Hoz9Jt24U8FRxCGWqwZo-29" value="取消订单，释放库存" style="whiteSpace=wrap;html=1;" vertex="1" parent="1">
          <mxGeometry x="150" y="4005" width="120" height="60" as="geometry" />
        </mxCell>
        <mxCell id="Hoz9Jt24U8FRxCGWqwZo-31" value="确认支付，支付成功，订单完成" style="whiteSpace=wrap;html=1;" vertex="1" parent="1">
          <mxGeometry x="-150" y="4150" width="140" height="60" as="geometry" />
        </mxCell>
      </root>
    </mxGraphModel>
  </diagram>
</mxfile>
